<svg id="Capa_1" enable-background="new 0 0 511.999 511.999" height="512" viewBox="0 0 511.999 511.999" width="512" xmlns="http://www.w3.org/2000/svg"><g><path d="m451.27 485.517c0-7.583-6.043-13.766-13.563-14.025 1.057-2.678 1.644-5.591 1.644-8.64v-24.78c0-4.142-3.357-7.5-7.5-7.5s-7.5 3.358-7.5 7.5v24.78c0 4.75-3.865 8.616-8.615 8.616h-117.24c-4.752 0-8.616-3.866-8.616-8.616 0-17.73 0-66.197 0-84.561 0-4.745 3.886-8.616 8.616-8.616h117.24c4.75 0 8.615 3.865 8.615 8.616v24.78c0 4.142 3.357 7.5 7.5 7.5s7.5-3.358 7.5-7.5v-24.78c0-13.022-10.594-23.616-23.615-23.616h-117.24c-.391 0-.779.011-1.166.03l-.001-4.969c13.664-9.787 22.594-25.783 22.594-43.834v-22.719c5.238-2.589 8.857-7.973 8.857-14.2v-35.315c0-12.821-11.093-22.168-22.55-21.291-.381.028-.814-.105-.866-.369-2.572-13.165-11.155-19.84-25.511-19.84h-6.353c-4.143 0-7.5 3.358-7.5 7.5s3.357 7.5 7.5 7.5h6.354c8.636 0 9.879 3.056 10.79 7.72 1.51 7.713 8.7 13.061 16.738 12.445 2.871-.232 6.398 2.408 6.398 6.334v35.315c0 2.258-8.525.163-9.228-6.744-.098-1 .269-5.139-3.794-7.792-4.066-2.669-9.589-1.31-11.907 3.028-4.056 7.587-11.925 12.354-20.588 12.354-11.419 0-43.046 0-52.665 0-3.023 0-5.483-2.46-5.483-5.483v-33.842c0-12.868 10.469-23.336 23.336-23.336h5.049c4.143 0 7.5-3.358 7.5-7.5s-3.357-7.5-7.5-7.5h-5.049c-21.139 0-38.336 17.197-38.336 38.336v33.842c0 9.631 6.69 17.709 15.661 19.886v21.67c0 16.558 8.071 33.472 22.565 43.83v7.711l-59.896 23.394c-.042.016-.084.033-.126.05-13.77 5.667-28.59 21.876-28.59 44.075v71.595c0 8.516 6.928 15.443 15.443 15.443h264.616c14.602 0 26.482-11.88 26.482-26.482zm-225.494-179.616v-21.073h42.487c9.519 0 18.706-3.596 25.618-9.812 2.728 3.807 6.569 6.759 11.041 8.392v22.493c0 21.504-17.534 38.901-38.902 38.901-25.067 0-40.244-19.652-40.244-38.901zm-39.952 191.098h-25.651c-.244 0-.443-.199-.443-.443v-36.93h26.095v37.373zm79.739 0h-64.739c0-7.746 0-64.137 0-72.293 0-4.142-3.357-7.5-7.5-7.5s-7.5 3.358-7.5 7.5v19.92h-26.095v-19.666c0-16.293 11.485-26.959 19.242-30.18l45.875-17.917c9.77 12.221 24.435 19.118 41.134 19.118 3.007 0 5.977-.273 8.898-.789v67.66c0 2.827.513 5.731 1.631 8.625-11.093.39-17.356 12.218-10.946 25.522zm9.316-117.127c-2.893.738-5.871 1.11-8.898 1.11-10.251 0-19.402-3.549-26.174-9.961 1.63-.637 2.401-.863 3.359-1.513 5.654-3.836 5.176-9.285 5.176-12.334 10.46 3.277 22.871 3.634 33.988.1.001 2.267-.029 2.84.071 3.745-5.703 5.31-7.522 11.612-7.522 18.853zm149.91 117.127h-135.346c-6.012 0-10.96-4.665-11.443-10.531h158.231c-.484 5.888-5.432 10.531-11.442 10.531z"/><path d="m352.4 413.072c-4.143 0-7.5 3.358-7.5 7.5s3.357 7.5 7.5 7.5h9.432c4.143 0 7.5-3.358 7.5-7.5s-3.357-7.5-7.5-7.5z"/><path d="m107.94 116.767c32.186 0 58.384-26.172 58.384-58.383 0-32.193-26.191-58.384-58.384-58.384s-58.384 26.191-58.384 58.384c0 31.997 25.943 58.383 58.384 58.383zm0-15c-9.255 0-18.496-2.944-26.299-8.912.6-6.101 5.758-10.884 12.015-10.884h28.568c6.256 0 11.415 4.783 12.014 10.885-7.608 5.818-16.79 8.911-26.298 8.911zm-.001-59.012c10.759 0 16.17 13.062 8.563 20.668-4.732 4.733-12.393 4.734-17.126 0-7.603-7.603-2.197-20.668 8.563-20.668zm.001-27.755c23.922 0 43.384 19.462 43.384 43.384 0 7.928-2.148 15.36-5.877 21.762-3.2-5.326-8.178-9.465-14.108-11.592 10.531-18.006-2.469-40.804-23.399-40.804-20.913 0-33.944 22.777-23.399 40.804-5.93 2.127-10.908 6.265-14.108 11.591-3.729-6.402-5.876-13.833-5.876-21.761-.001-23.922 19.461-43.384 43.383-43.384z"/><path d="m256 116.767c32.15 0 58.384-26.149 58.384-58.383-.001-32.193-26.191-58.384-58.384-58.384s-58.384 26.191-58.384 58.384c0 31.997 25.946 58.383 58.384 58.383zm0-15c-9.37 0-18.581-3.009-26.299-8.912.6-6.101 5.758-10.884 12.015-10.884h28.568c6.256 0 11.415 4.783 12.015 10.884-7.845 6-17.109 8.912-26.299 8.912zm0-59.011c3.101 0 6.202 1.181 8.562 3.541h.001c2.287 2.287 3.547 5.329 3.547 8.563 0 6.692-5.416 12.111-12.11 12.111-3.235 0-6.276-1.26-8.563-3.547-7.607-7.606-2.197-20.668 8.563-20.668zm0-27.756c23.922 0 43.384 19.462 43.384 43.384 0 7.928-2.147 15.359-5.876 21.761-3.199-5.324-8.176-9.462-14.104-11.589 2.415-4.11 3.707-8.802 3.707-13.695 0-24.06-29.245-36.202-46.281-19.17-8.894 8.895-10.301 22.481-4.228 32.864-5.93 2.127-10.909 6.265-14.108 11.591-3.729-6.402-5.876-13.833-5.876-21.761-.002-23.923 19.46-43.385 43.382-43.385z"/><path d="m404.059 116.767c32.086 0 58.384-26.083 58.384-58.383 0-32.193-26.191-58.384-58.384-58.384s-58.384 26.191-58.384 58.384c0 32.056 26 58.383 58.384 58.383zm0-15c-9.204 0-18.464-2.92-26.299-8.912.6-6.101 5.758-10.884 12.015-10.884h28.568c6.256 0 11.415 4.783 12.015 10.884-7.815 5.977-17.069 8.912-26.299 8.912zm0-59.011c3.101 0 6.202 1.181 8.562 3.541h.001c2.287 2.287 3.547 5.329 3.547 8.563 0 3.235-1.26 6.276-3.548 8.563-2.287 2.288-5.328 3.547-8.562 3.547-3.235 0-6.276-1.26-8.563-3.547-7.607-7.605-2.197-20.667 8.563-20.667zm0-27.756c23.922 0 43.384 19.462 43.384 43.384 0 7.928-2.147 15.359-5.876 21.761-3.199-5.324-8.176-9.462-14.104-11.589 2.415-4.11 3.707-8.802 3.707-13.695 0-24.06-29.245-36.202-46.281-19.17-8.894 8.895-10.301 22.481-4.228 32.864-5.93 2.127-10.909 6.265-14.108 11.591-3.729-6.402-5.876-13.833-5.876-21.761-.002-23.923 19.46-43.385 43.382-43.385z"/><path d="m263.5 173.333v-37.333c0-4.142-3.357-7.5-7.5-7.5s-7.5 3.358-7.5 7.5v37.333c0 4.142 3.357 7.5 7.5 7.5s7.5-3.358 7.5-7.5z"/><path d="m296.522 173.333v-11.167h107.537c4.143 0 7.5-3.358 7.5-7.5v-18.666c0-4.142-3.357-7.5-7.5-7.5s-7.5 3.358-7.5 7.5v11.167h-107.537c-4.143 0-7.5 3.358-7.5 7.5v18.667c0 4.142 3.357 7.5 7.5 7.5s7.5-3.359 7.5-7.501z"/><path d="m107.94 128.5c-4.143 0-7.5 3.358-7.5 7.5v18.667c0 4.142 3.357 7.5 7.5 7.5h107.537v11.167c0 4.142 3.357 7.5 7.5 7.5s7.5-3.358 7.5-7.5v-18.667c0-4.142-3.357-7.5-7.5-7.5h-107.537v-11.167c0-4.143-3.357-7.5-7.5-7.5z"/></g></svg>